HIERARCHY
ROOT Hips
{
 OFFSET 0.000000 0.000000 0.000000
 CHANNELS 6 Xposition Yposition Zposition Yrotation Xrotation Zrotation
 JOINT Chest
 {
  OFFSET 0.000000 10.265206 0.006595
  CHANNELS 3 Yrotation Xrotation Zrotation
  JOINT Chest2
  {
   OFFSET 0.000000 11.389044 -0.011980
   CHANNELS 3 Yrotation Xrotation Zrotation
   JOINT Chest3
   {
    OFFSET 0.000000 10.290982 0.000000
    CHANNELS 3 Yrotation Xrotation Zrotation
    JOINT Chest4
    {
     OFFSET 0.000000 10.290982 0.000000
     CHANNELS 3 Yrotation Xrotation Zrotation
     JOINT Neck
     {
      OFFSET 0.000000 14.367993 0.000000
      CHANNELS 3 Yrotation Xrotation Zrotation
      JOINT Head
      {
       OFFSET 0.000000 9.574020 -0.028490
       CHANNELS 3 Yrotation Xrotation Zrotation
       End Site
       {
        OFFSET 0.000000 18.400023 -0.014881
       }
      }
     }
     JOINT RightCollar
     {
      OFFSET -3.015571 8.009391 0.000000
      CHANNELS 3 Yrotation Xrotation Zrotation
      JOINT RightShoulder
      {
       OFFSET -13.867120 0.000000 0.000000
       CHANNELS 3 Yrotation Xrotation Zrotation
       JOINT RightElbow
       {
        OFFSET -29.171974 0.000000 0.000000
        CHANNELS 3 Yrotation Xrotation Zrotation
        JOINT RightWrist
        {
         OFFSET -24.013854 0.000000 0.006497
         CHANNELS 3 Yrotation Xrotation Zrotation
         End Site
         {
          OFFSET -18.051397 0.000000 0.000000
         }
        }
       }
      }
     }
     JOINT LeftCollar
     {
      OFFSET 3.015571 8.009391 0.000000
      CHANNELS 3 Yrotation Xrotation Zrotation
      JOINT LeftShoulder
      {
       OFFSET 13.867120 0.000000 0.000000
       CHANNELS 3 Yrotation Xrotation Zrotation
       JOINT LeftElbow
       {
        OFFSET 29.171974 0.000000 0.000000
        CHANNELS 3 Yrotation Xrotation Zrotation
        JOINT LeftWrist
        {
         OFFSET 24.013854 0.000000 0.006497
         CHANNELS 3 Yrotation Xrotation Zrotation
         End Site
         {
          OFFSET 18.051397 0.000000 0.000000
         }
        }
       }
      }
     }
    }
   }
  }
 }
 JOINT RightHip
 {
  OFFSET -8.283980 -0.032318 -0.003298
  CHANNELS 3 Yrotation Xrotation Zrotation
  JOINT RightKnee
  {
   OFFSET 0.000000 -43.567000 0.003120
   CHANNELS 3 Yrotation Xrotation Zrotation
   JOINT RightAnkle
   {
    OFFSET 0.000000 -42.556413 0.005276
    CHANNELS 3 Yrotation Xrotation Zrotation
    JOINT RightToe
    {
     OFFSET 0.000000 -7.926623 17.954935
     CHANNELS 3 Yrotation Xrotation Zrotation
     End Site
     {
      OFFSET 0.000000 -1.555762 6.841994
     }
    }
   }
  }
 }
 JOINT LeftHip
 {
  OFFSET 8.283980 -0.032318 -0.003298
  CHANNELS 3 Yrotation Xrotation Zrotation
  JOINT LeftKnee
  {
   OFFSET 0.000000 -43.567000 0.003120
   CHANNELS 3 Yrotation Xrotation Zrotation
   JOINT LeftAnkle
   {
    OFFSET 0.000000 -42.556413 0.005276
    CHANNELS 3 Yrotation Xrotation Zrotation
    JOINT LeftToe
    {
     OFFSET 0.000000 -7.926623 17.954935
     CHANNELS 3 Yrotation Xrotation Zrotation
     End Site
     {
      OFFSET 0.000000 -1.555762 6.841994
     }
    }
   }
  }
 }
}
MOTION
Frames: 11
Frame Time: 0.033333
-31.291797 95.649047 8.144928 -110.740990 5.419061 5.357846 -0.866107 6.880735 3.616203 -0.629003 4.297049 2.011104 -0.515099 3.435920 1.612032 -0.395284 2.575606 1.211561 3.421884 13.232747 -8.900182 5.986772 -11.774980 -10.779032 1.966353 -4.222269 -2.293906 38.490121 -44.962769 58.301798 97.350175 -14.201663 51.570531 4.833010 12.694119 41.095958 -5.673587 -4.511045 2.686529 -58.230553 -31.879011 -43.618475 -93.644854 -13.070232 -50.221051 -6.229898 -4.089521 57.613451 -18.337141 -6.252469 -3.514819 -3.336677 -0.912366 0.109223 -0.301330 -2.721431 2.121483 -0.024535 0.371713 -0.021445 24.474947 -7.031753 -0.210489 -4.469060 8.875683 -0.414939 -1.464462 -5.294234 -6.118412 -0.098805 -0.705388 -0.541830
-31.746235 95.554627 7.521771 -112.298094 4.720571 4.687704 -1.107948 6.652323 3.053596 -0.757850 4.151550 1.668258 -0.615749 3.319510 1.338518 -0.468963 2.488301 1.006957 3.807889 13.390855 -8.584417 6.332742 -11.605431 -10.506439 2.282073 -4.813633 -2.063026 39.863358 -43.880737 56.924222 97.664541 -14.191817 51.178199 4.753910 12.024272 40.186657 -5.424285 -4.452212 2.830038 -57.358288 -32.256580 -44.604837 -93.980601 -12.556716 -50.051748 -6.364917 -3.604380 57.447140 -17.270805 -4.928061 -3.194124 -3.452674 -0.904544 0.307487 0.019254 -2.983121 2.016336 -0.011226 0.337580 -0.067131 24.987372 -6.961018 0.937271 -4.032394 10.611916 -0.135560 -1.191035 -6.459806 -6.375976 -0.100192 -0.718629 -0.513665
-32.198522 95.370241 6.845749 -113.770779 4.026247 4.004374 -1.198810 6.494807 2.503483 -0.795406 4.051542 1.340436 -0.643701 3.239770 1.076482 -0.488361 2.428706 0.810563 3.975442 13.434190 -8.246861 6.425725 -11.571081 -10.150541 2.508011 -5.687323 -1.768151 40.521379 -42.930214 56.224934 97.423657 -14.365249 51.366286 4.583805 11.296926 39.504998 -5.312722 -4.691917 3.185852 -56.447380 -32.380039 -45.877615 -94.696523 -11.682906 -49.554046 -6.464697 -3.182923 57.359022 -16.557041 -3.554497 -2.830610 -3.318939 -1.022249 0.571074 0.322731 -3.100808 1.898218 -0.000350 0.239678 -0.103964 25.032185 -6.986038 2.280122 -3.184717 12.452321 -0.022428 -0.969983 -7.574917 -6.617333 -0.098271 -0.766048 -0.482827
-32.636939 95.273361 6.143991 -115.011346 3.184285 3.363340 -1.258906 6.251075 2.016924 -0.819174 3.904249 1.061259 -0.660922 3.122203 0.853205 -0.499933 2.340739 0.643126 4.009373 13.683624 -7.861240 6.346745 -11.320246 -9.693820 2.650811 -5.976874 -1.536796 41.143010 -42.501143 55.534015 97.183594 -14.521792 51.631062 4.433007 10.719449 38.986435 -5.312499 -4.671096 3.362204 -55.787922 -32.329699 -46.776076 -95.255481 -11.044903 -49.039875 -6.508526 -2.820005 57.250021 -16.083486 -1.958055 -2.397016 -3.411815 -1.280103 0.686704 0.774944 -3.248384 1.861325 0.010470 0.220009 -0.145773 24.591145 -6.790557 3.754533 -2.174489 14.154936 -0.041448 -0.679528 -8.643347 -6.803322 -0.081517 -0.727758 -0.466316
-33.091481 95.210473 5.504685 -115.996799 2.265933 2.832482 -1.363543 6.113698 1.548089 -0.865770 3.821078 0.804285 -0.696699 3.055904 0.647855 -0.525643 2.291196 0.489263 4.135582 13.895761 -7.442583 6.365440 -11.108154 -9.230082 3.004316 -6.556490 -1.226371 42.246251 -41.899165 54.312934 97.316740 -14.464683 51.428475 4.397713 10.109136 38.372020 -5.229323 -4.886473 3.547015 -55.071274 -32.301812 -47.441932 -95.678352 -10.418386 -48.626781 -6.712003 -2.429042 57.064670 -15.448404 -0.343340 -2.079458 -3.621717 -1.479222 0.755223 0.952060 -3.341428 1.859411 0.025916 0.127034 -0.158637 24.226558 -6.262594 5.004798 -1.560427 15.390716 -0.037093 -0.222842 -9.347484 -6.809370 -0.097330 -0.752150 -0.532102
-33.477229 95.208112 4.927501 -116.671611 1.343036 2.487154 -1.535306 5.963010 1.106236 -0.952893 3.732190 0.585485 -0.765144 2.984985 0.473223 -0.576041 2.238152 0.358577 4.253193 14.201717 -7.144867 6.407499 -10.787519 -8.906703 3.473970 -7.227660 -1.151052 43.711060 -41.210814 53.145706 97.023044 -14.397918 51.153490 4.416760 9.622661 37.829136 -4.973451 -5.170893 3.671399 -54.572509 -32.014398 -48.072733 -96.540660 -9.630599 -47.702788 -6.641802 -1.965197 56.952847 -14.276627 1.127180 -1.839664 -4.163579 -1.532942 0.691651 0.726240 -3.466683 1.893200 0.048722 0.014008 -0.150251 24.147743 -5.367720 5.971819 -1.532120 15.858460 -0.101831 0.295859 -9.656690 -6.681486 -0.106808 -0.711868 -0.593227
-33.841804 95.208112 4.389360 -116.968131 0.329514 2.162124 -1.674088 5.839622 0.748269 -1.034671 3.654668 0.381907 -0.829452 2.923193 0.310726 -0.623442 2.191979 0.236965 4.277560 14.591355 -6.828450 6.337828 -10.381305 -8.536038 3.793161 -7.741035 -1.232498 44.889755 -40.875584 52.252370 96.588258 -14.449110 51.174196 4.426925 9.442846 37.420725 -4.915774 -5.386454 3.816064 -54.380660 -31.541657 -48.544782 -97.423423 -8.924454 -46.493345 -6.483205 -1.582829 56.942401 -12.930588 2.671359 -1.517698 -5.101499 -1.579409 0.516258 0.453371 -3.652081 1.949933 0.060384 -0.056129 -0.118771 23.822056 -4.356525 6.898138 -0.782956 16.150818 0.025441 0.214214 -9.777681 -6.590117 -0.114452 -0.711139 -0.587192
-34.159355 95.123306 3.941341 -116.899729 -0.685139 1.814668 -1.795687 5.737395 0.307809 -1.097869 3.595024 0.152100 -0.878817 2.875797 0.127165 -0.659573 2.156670 0.099493 4.266808 14.854776 -6.359971 6.189648 -10.122860 -7.986229 3.993935 -8.242301 -1.150166 45.730519 -40.690117 51.671527 96.695634 -14.371045 51.116972 4.179181 9.304352 37.385680 -4.923735 -5.656038 4.280304 -54.342926 -31.080929 -49.012618 -98.207103 -8.314510 -45.282587 -6.289738 -1.509516 57.040116 -11.577681 4.042006 -1.216427 -5.936408 -1.345682 0.443796 -0.124953 -3.932722 1.990753 0.067759 -0.150631 -0.091997 23.442335 -3.433100 7.774626 -0.224571 16.439709 0.153976 0.179005 -9.993430 -6.549401 -0.115501 -0.595697 -0.533300
-34.445871 95.096084 3.564845 -116.553148 -1.621470 1.390108 -1.877032 5.584296 0.000652 -1.155992 3.495001 -0.046482 -0.924326 2.796087 -0.031528 -0.692962 2.097119 -0.019409 4.205854 15.165057 -5.873617 5.981662 -9.816709 -7.406971 4.235339 -8.603605 -1.086648 46.340015 -40.612323 51.259590 96.496682 -14.404594 51.295214 4.016210 9.209789 37.310489 -4.812595 -5.882810 4.592175 -54.148638 -30.672556 -49.624962 -98.774594 -7.928883 -44.401131 -6.106246 -1.339662 57.135964 -10.445681 5.340003 -0.702339 -6.922022 -1.171365 0.317136 -0.515125 -4.336458 1.995749 0.073682 -0.090597 -0.054583 23.475833 -2.610555 8.641847 -0.049027 16.480738 0.278455 -0.022303 -10.118172 -6.505922 -0.107658 -0.466740 -0.464571
-34.768173 95.057377 3.231242 -115.993983 -2.416448 1.029161 -1.906062 5.351059 -0.265842 -1.172283 3.338294 -0.220713 -0.936574 2.671008 -0.171059 -0.701555 2.003524 -0.124175 3.953996 15.527864 -5.278167 5.533436 -9.468151 -6.658272 4.481371 -8.929698 -1.186744 46.612369 -40.358058 51.177395 96.104610 -14.457683 51.537194 3.990149 8.833288 37.047682 -4.553067 -6.219303 4.725707 -53.694680 -30.453071 -50.723909 -99.083157 -7.548646 -43.984552 -5.997570 -0.962461 57.087094 -9.928184 6.566030 -0.308047 -7.556127 -1.163922 0.259861 -0.793322 -4.674666 2.015801 0.058934 -0.042898 -0.031051 23.592730 -1.837896 9.408335 0.051068 16.306892 0.331085 -0.313498 -10.180209 -6.490109 -0.087627 -0.350930 -0.358963
-35.161537 95.033444 2.997805 -115.290777 -3.129636 0.694462 -1.785972 4.920627 -0.531033 -1.092553 3.067814 -0.370810 -0.872277 2.454827 -0.291905 -0.652935 1.841541 -0.215390 3.302971 16.084691 -4.548895 4.616385 -8.932983 -5.665451 4.656116 -9.131696 -1.272999 46.608634 -39.621163 51.524818 95.918528 -14.391517 51.496742 4.012698 8.280881 36.769476 -4.334021 -6.367401 4.502898 -52.724600 -30.412221 -52.037558 -99.009712 -7.399694 -44.372981 -6.056859 -0.619058 56.876821 -9.968342 7.754689 -0.091218 -7.756905 -1.258391 0.282480 -1.040654 -4.900185 2.056161 0.028158 -0.058465 -0.004234 23.929865 -1.021807 10.121337 -0.035511 15.855119 0.493718 -0.727207 -10.192495 -6.664496 -0.077950 -0.246791 -0.233211
